<svg xmlns="http://www.w3.org/2000/svg" xmlns:xlink="http://www.w3.org/1999/xlink" width="40" zoomAndPan="magnify" viewBox="0 0 30 30.000001" height="40" preserveAspectRatio="xMidYMid meet" version="1.0"><defs><clipPath id="52f82c2fa8"><path d="M 3.386719 2.476562 L 26.613281 2.476562 L 26.613281 26.429688 L 3.386719 26.429688 Z M 3.386719 2.476562 " clip-rule="nonzero"/></clipPath></defs><g clip-path="url(#52f82c2fa8)"><path fill="#ffffff" d="M 26.371094 12.714844 C 26.433594 12.914062 26.472656 13.113281 26.5 13.320312 C 26.554688 13.648438 26.59375 13.976562 26.589844 14.308594 C 26.585938 14.5625 26.496094 14.800781 26.347656 14.984375 C 26.359375 15.085938 26.363281 15.183594 26.363281 15.289062 C 26.367188 15.511719 26.398438 15.648438 26.367188 15.863281 C 26.355469 16.394531 26.257812 16.921875 26.09375 17.425781 C 26 17.730469 25.902344 17.953125 25.628906 18.148438 L 25.582031 18.179688 C 25.472656 18.25 25.359375 18.292969 25.242188 18.316406 C 25.210938 18.394531 25.175781 18.46875 25.140625 18.542969 C 25.113281 18.601562 25.089844 18.65625 25.0625 18.710938 L 24.851562 19.15625 L 24.816406 19.160156 C 24.613281 19.496094 24.367188 19.804688 24.097656 20.097656 C 24 20.203125 23.894531 20.300781 23.785156 20.394531 C 23.640625 20.527344 23.488281 20.648438 23.320312 20.753906 C 23.070312 20.914062 22.796875 20.949219 22.550781 20.890625 C 22.535156 20.902344 22.515625 20.917969 22.5 20.929688 L 22.488281 20.941406 L 22.476562 20.949219 C 22.210938 21.144531 21.957031 21.328125 21.65625 21.472656 C 21.476562 21.5625 21.28125 21.59375 21.097656 21.578125 C 21.070312 21.605469 21.042969 21.632812 21.011719 21.660156 C 20.953125 21.832031 20.902344 22 20.816406 22.175781 C 20.507812 22.832031 19.960938 23.324219 19.339844 23.6875 C 19.289062 23.71875 19.15625 23.804688 19.132812 23.867188 C 19.007812 24.199219 18.882812 24.515625 18.679688 24.8125 C 18.382812 25.265625 17.964844 25.628906 17.480469 25.875 L 17.472656 25.925781 L 16.941406 26.101562 C 16.542969 26.230469 16.152344 26.339844 15.734375 26.359375 C 15.558594 26.386719 15.394531 26.390625 15.214844 26.40625 L 15.175781 26.414062 L 15.136719 26.414062 C 15.003906 26.414062 14.890625 26.417969 14.773438 26.398438 C 14.449219 26.394531 14.140625 26.34375 13.820312 26.292969 L 13.789062 26.285156 L 13.757812 26.28125 C 13.289062 26.171875 12.84375 26.035156 12.429688 25.792969 C 11.882812 25.488281 11.449219 25.015625 11.167969 24.464844 C 11.074219 24.285156 11.015625 24.105469 10.933594 23.925781 C 10.902344 23.871094 10.855469 23.789062 10.824219 23.761719 C 10.679688 23.664062 10.53125 23.574219 10.386719 23.476562 C 9.847656 23.121094 9.414062 22.613281 9.164062 22.019531 C 9.105469 21.890625 9.070312 21.769531 9.027344 21.640625 C 9.003906 21.621094 8.976562 21.597656 8.953125 21.578125 C 8.753906 21.597656 8.542969 21.558594 8.355469 21.460938 C 8.042969 21.3125 7.773438 21.121094 7.492188 20.921875 L 7.21875 21.09375 L 6.722656 20.773438 C 6.148438 20.40625 5.675781 19.898438 5.304688 19.332031 C 5.089844 19.011719 4.910156 18.671875 4.769531 18.316406 C 4.417969 18.238281 4.101562 17.984375 3.976562 17.605469 C 3.679688 16.773438 3.585938 15.882812 3.671875 15.003906 C 3.515625 14.8125 3.425781 14.570312 3.429688 14.324219 C 3.421875 13.957031 3.464844 13.59375 3.539062 13.234375 C 3.726562 12.230469 4.152344 11.273438 4.742188 10.4375 C 4.734375 10.425781 4.730469 10.417969 4.722656 10.40625 C 4.53125 10.011719 4.5 9.597656 4.546875 9.179688 C 4.367188 8.957031 4.195312 8.75 4.054688 8.492188 C 3.609375 7.710938 3.414062 6.820312 3.386719 5.925781 L 3.386719 5.878906 C 3.398438 5.304688 3.464844 4.738281 3.691406 4.199219 C 3.957031 3.527344 4.449219 2.941406 5.140625 2.675781 C 5.914062 2.363281 6.757812 2.484375 7.511719 2.792969 C 8.042969 3 8.496094 3.316406 8.953125 3.648438 C 9.363281 3.941406 9.746094 4.285156 10.171875 4.550781 C 10.226562 4.585938 10.402344 4.683594 10.472656 4.675781 L 10.527344 4.667969 C 10.625 4.648438 10.746094 4.585938 10.832031 4.542969 C 11.03125 4.441406 11.222656 4.332031 11.429688 4.25 C 12.027344 3.976562 12.679688 3.832031 13.332031 3.816406 C 13.804688 3.785156 14.265625 3.847656 14.730469 3.929688 C 14.820312 3.945312 14.996094 3.980469 15.066406 3.972656 C 15.460938 3.925781 15.832031 3.839844 16.234375 3.820312 C 16.820312 3.769531 17.402344 3.847656 17.972656 3.992188 C 18.378906 4.09375 18.738281 4.269531 19.113281 4.457031 L 19.121094 4.460938 L 19.128906 4.46875 C 19.261719 4.539062 19.433594 4.632812 19.582031 4.664062 L 19.609375 4.667969 L 19.628906 4.675781 C 19.703125 4.675781 19.871094 4.585938 19.941406 4.546875 C 20.40625 4.25 20.828125 3.878906 21.273438 3.558594 L 21.28125 3.550781 L 21.289062 3.546875 C 21.75 3.222656 22.210938 2.925781 22.746094 2.738281 C 23.332031 2.519531 23.953125 2.414062 24.570312 2.5625 C 24.960938 2.648438 25.320312 2.84375 25.613281 3.109375 L 25.628906 3.121094 L 25.640625 3.132812 C 26.042969 3.523438 26.324219 4.023438 26.460938 4.566406 C 26.691406 5.492188 26.652344 6.46875 26.40625 7.386719 L 26.402344 7.394531 L 26.402344 7.402344 C 26.246094 7.933594 26.019531 8.445312 25.691406 8.890625 C 25.628906 8.984375 25.550781 9.066406 25.484375 9.148438 C 25.554688 9.582031 25.496094 10.035156 25.300781 10.429688 C 25.328125 10.46875 25.355469 10.503906 25.375 10.535156 C 25.542969 10.789062 25.707031 11.050781 25.84375 11.324219 C 26.070312 11.769531 26.261719 12.226562 26.371094 12.714844 Z M 5.480469 3.53125 C 6.023438 3.308594 6.640625 3.429688 7.164062 3.644531 C 7.621094 3.824219 8.023438 4.109375 8.414062 4.394531 C 8.839844 4.699219 9.234375 5.046875 9.679688 5.328125 C 9.976562 5.511719 10.335938 5.65625 10.691406 5.570312 C 11.09375 5.5 11.425781 5.242188 11.796875 5.09375 C 12.289062 4.863281 12.832031 4.746094 13.375 4.734375 C 13.777344 4.707031 14.179688 4.765625 14.574219 4.835938 C 14.773438 4.863281 14.976562 4.910156 15.179688 4.886719 C 15.550781 4.839844 15.917969 4.753906 16.292969 4.738281 C 16.78125 4.691406 17.273438 4.765625 17.746094 4.882812 C 18.078125 4.96875 18.386719 5.121094 18.691406 5.277344 C 18.914062 5.398438 19.144531 5.511719 19.398438 5.566406 C 19.753906 5.660156 20.117188 5.511719 20.421875 5.332031 C 20.910156 5.023438 21.347656 4.640625 21.816406 4.300781 C 22.207031 4.027344 22.609375 3.761719 23.0625 3.601562 C 23.472656 3.449219 23.929688 3.351562 24.363281 3.457031 C 24.597656 3.507812 24.816406 3.628906 24.992188 3.789062 C 25.273438 4.0625 25.464844 4.410156 25.5625 4.789062 C 25.75 5.5625 25.71875 6.378906 25.511719 7.148438 C 25.386719 7.578125 25.207031 8 24.9375 8.363281 C 24.8125 8.558594 24.605469 8.707031 24.542969 8.9375 C 24.511719 9.03125 24.542969 9.128906 24.558594 9.222656 C 24.625 9.546875 24.582031 9.910156 24.371094 10.175781 C 24.292969 10.269531 24.238281 10.40625 24.292969 10.523438 C 24.363281 10.714844 24.492188 10.871094 24.601562 11.039062 C 24.753906 11.265625 24.894531 11.496094 25.019531 11.734375 C 25.210938 12.125 25.390625 12.527344 25.476562 12.957031 C 25.535156 13.117188 25.5625 13.292969 25.589844 13.460938 C 25.632812 13.734375 25.671875 14.015625 25.664062 14.292969 C 25.664062 14.359375 25.628906 14.476562 25.539062 14.441406 C 25.464844 14.382812 25.402344 14.308594 25.324219 14.25 C 25.359375 14.597656 25.4375 14.941406 25.441406 15.292969 C 25.4375 15.457031 25.476562 15.621094 25.445312 15.785156 C 25.441406 16.246094 25.355469 16.707031 25.214844 17.144531 C 25.183594 17.234375 25.167969 17.34375 25.085938 17.40625 C 25.035156 17.433594 24.96875 17.40625 24.945312 17.355469 C 24.875 17.21875 24.804688 17.078125 24.722656 16.945312 C 24.710938 16.945312 24.695312 16.945312 24.6875 16.945312 C 24.601562 17.355469 24.488281 17.769531 24.304688 18.148438 C 24.277344 18.207031 24.25 18.265625 24.226562 18.324219 L 24.21875 18.324219 C 24.023438 18.75 23.734375 19.128906 23.417969 19.472656 C 23.339844 19.554688 23.261719 19.632812 23.175781 19.703125 C 23.0625 19.804688 22.945312 19.902344 22.816406 19.980469 C 22.746094 20.03125 22.671875 19.945312 22.675781 19.878906 C 22.675781 19.769531 22.679688 19.660156 22.679688 19.554688 C 22.617188 19.578125 22.582031 19.636719 22.535156 19.679688 C 22.347656 19.871094 22.136719 20.042969 21.925781 20.210938 C 21.707031 20.371094 21.492188 20.535156 21.246094 20.648438 C 21.1875 20.683594 21.105469 20.652344 21.09375 20.585938 C 21.089844 20.511719 21.101562 20.4375 21.101562 20.363281 C 20.996094 20.40625 20.921875 20.503906 20.832031 20.570312 C 20.707031 20.6875 20.574219 20.792969 20.453125 20.914062 C 20.371094 21.011719 20.261719 21.085938 20.195312 21.195312 C 20.125 21.390625 20.078125 21.589844 19.984375 21.777344 C 19.757812 22.265625 19.332031 22.628906 18.871094 22.894531 C 18.613281 23.046875 18.375 23.257812 18.265625 23.546875 C 18.167969 23.808594 18.070312 24.070312 17.910156 24.304688 C 17.621094 24.75 17.160156 25.066406 16.652344 25.222656 L 16.652344 25.226562 C 16.324219 25.332031 15.984375 25.433594 15.636719 25.445312 C 15.464844 25.476562 15.292969 25.476562 15.121094 25.492188 C 15.035156 25.496094 14.949219 25.503906 14.867188 25.480469 C 14.5625 25.484375 14.265625 25.433594 13.964844 25.382812 C 13.59375 25.296875 13.21875 25.191406 12.890625 24.996094 C 12.5 24.78125 12.1875 24.4375 11.988281 24.042969 C 11.894531 23.871094 11.839844 23.683594 11.757812 23.507812 C 11.652344 23.316406 11.53125 23.128906 11.347656 23.003906 C 11.199219 22.902344 11.042969 22.8125 10.898438 22.710938 C 10.503906 22.453125 10.1875 22.085938 10.011719 21.652344 C 9.9375 21.496094 9.898438 21.328125 9.835938 21.171875 C 9.753906 21.050781 9.640625 20.957031 9.535156 20.859375 C 9.367188 20.703125 9.191406 20.5625 9.023438 20.414062 C 9 20.394531 8.972656 20.378906 8.945312 20.367188 C 8.949219 20.445312 8.964844 20.53125 8.945312 20.609375 C 8.910156 20.671875 8.828125 20.671875 8.769531 20.640625 C 8.507812 20.519531 8.269531 20.34375 8.035156 20.175781 C 7.917969 20.078125 7.800781 19.984375 7.6875 19.878906 C 7.628906 19.828125 7.574219 19.773438 7.515625 19.71875 C 7.484375 19.6875 7.445312 19.65625 7.425781 19.613281 C 7.410156 19.601562 7.375 19.574219 7.359375 19.5625 L 7.335938 19.578125 C 7.324219 19.695312 7.339844 19.8125 7.328125 19.929688 C 7.3125 19.972656 7.261719 19.980469 7.226562 20 C 6.757812 19.703125 6.375 19.285156 6.078125 18.820312 C 5.6875 18.253906 5.449219 17.597656 5.332031 16.921875 C 5.1875 17.042969 5.140625 17.238281 5.039062 17.390625 C 4.96875 17.460938 4.875 17.386719 4.847656 17.308594 C 4.550781 16.464844 4.496094 15.542969 4.648438 14.664062 C 4.671875 14.527344 4.699219 14.386719 4.714844 14.246094 C 4.628906 14.304688 4.566406 14.386719 4.484375 14.449219 C 4.40625 14.488281 4.347656 14.390625 4.351562 14.324219 C 4.347656 14.019531 4.382812 13.710938 4.445312 13.414062 C 4.613281 12.511719 5 11.65625 5.539062 10.910156 C 5.644531 10.742188 5.792969 10.574219 5.773438 10.363281 C 5.730469 10.226562 5.617188 10.128906 5.554688 10.003906 C 5.414062 9.71875 5.441406 9.386719 5.496094 9.082031 C 5.515625 8.925781 5.425781 8.78125 5.320312 8.671875 C 5.160156 8.46875 4.984375 8.273438 4.863281 8.046875 C 4.488281 7.398438 4.335938 6.640625 4.3125 5.898438 C 4.320312 5.441406 4.367188 4.972656 4.546875 4.546875 C 4.71875 4.109375 5.03125 3.699219 5.480469 3.53125 Z M 12.761719 21.316406 C 12.894531 21.277344 13.035156 21.339844 13.144531 21.414062 C 13.195312 21.457031 13.265625 21.503906 13.257812 21.582031 C 13.277344 21.671875 13.167969 21.722656 13.089844 21.714844 C 12.929688 21.703125 12.742188 21.628906 12.683594 21.46875 C 12.660156 21.40625 12.707031 21.34375 12.761719 21.316406 Z M 18.078125 21.199219 C 18.199219 21.148438 18.34375 21.285156 18.261719 21.402344 C 18.144531 21.566406 17.9375 21.691406 17.726562 21.660156 C 17.683594 21.652344 17.652344 21.617188 17.628906 21.582031 C 17.617188 21.511719 17.660156 21.445312 17.710938 21.398438 C 17.816406 21.304688 17.945312 21.246094 18.078125 21.199219 Z M 18.648438 21.277344 C 18.714844 21.214844 18.792969 21.167969 18.875 21.125 C 18.964844 21.085938 19.058594 21.050781 19.144531 20.996094 C 19.292969 20.90625 19.476562 20.835938 19.554688 20.667969 C 19.601562 20.554688 19.636719 20.425781 19.609375 20.304688 C 19.589844 20.234375 19.507812 20.28125 19.460938 20.292969 C 19.265625 20.378906 19.050781 20.492188 18.828125 20.433594 C 18.730469 20.410156 18.632812 20.433594 18.539062 20.460938 C 18.386719 20.507812 18.269531 20.632812 18.109375 20.652344 C 18.027344 20.671875 17.910156 20.675781 17.875 20.582031 C 17.863281 20.488281 17.925781 20.402344 18 20.347656 C 18.148438 20.234375 18.328125 20.101562 18.527344 20.15625 C 18.707031 20.15625 18.917969 20.167969 19.0625 20.039062 C 19.242188 19.894531 19.464844 19.796875 19.589844 19.59375 C 19.6875 19.433594 19.671875 19.238281 19.65625 19.058594 C 19.636719 18.996094 19.617188 18.929688 19.59375 18.867188 C 19.582031 18.835938 19.566406 18.804688 19.554688 18.773438 C 19.488281 18.609375 19.398438 18.460938 19.289062 18.320312 C 19.078125 18.050781 18.871094 17.769531 18.738281 17.449219 C 18.6875 17.332031 18.628906 17.210938 18.648438 17.082031 C 18.65625 17.007812 18.738281 16.933594 18.8125 16.972656 C 18.988281 17.050781 19.113281 17.203125 19.238281 17.339844 C 19.535156 17.664062 19.796875 18.035156 19.945312 18.453125 C 19.96875 18.515625 19.992188 18.578125 20.015625 18.644531 C 20.085938 18.859375 20.136719 19.082031 20.15625 19.308594 C 20.1875 19.523438 20.210938 19.746094 20.175781 19.960938 C 20.164062 20.109375 20.171875 20.257812 20.210938 20.402344 C 20.226562 20.398438 20.257812 20.382812 20.273438 20.378906 C 20.636719 20.140625 20.914062 19.792969 21.136719 19.421875 C 21.300781 19.15625 21.40625 18.863281 21.558594 18.589844 C 21.601562 18.523438 21.671875 18.449219 21.761719 18.464844 C 21.867188 18.523438 21.847656 18.664062 21.855469 18.761719 C 21.867188 18.984375 21.773438 19.199219 21.792969 19.417969 C 21.894531 19.378906 21.972656 19.296875 22.054688 19.226562 C 22.304688 18.984375 22.507812 18.695312 22.644531 18.375 C 22.738281 18.144531 22.785156 17.898438 22.835938 17.65625 C 22.859375 17.582031 22.882812 17.492188 22.964844 17.464844 C 23.050781 17.449219 23.097656 17.539062 23.125 17.605469 C 23.203125 17.800781 23.230469 18.015625 23.253906 18.226562 C 23.257812 18.273438 23.277344 18.316406 23.296875 18.359375 C 23.730469 17.792969 23.933594 17.089844 24.027344 16.394531 C 23.96875 16.300781 23.992188 16.1875 23.996094 16.085938 C 24.011719 15.945312 24.015625 15.804688 24.054688 15.671875 C 24.046875 15.519531 24.015625 15.355469 24.066406 15.207031 C 24.089844 15.132812 24.191406 15.140625 24.238281 15.1875 C 24.441406 15.382812 24.53125 15.65625 24.6875 15.882812 C 24.699219 15.882812 24.714844 15.886719 24.722656 15.886719 C 24.753906 15.785156 24.75 15.679688 24.769531 15.578125 C 24.796875 15.277344 24.765625 14.980469 24.734375 14.683594 C 24.691406 14.316406 24.589844 13.960938 24.484375 13.609375 C 24.421875 13.394531 24.304688 13.195312 24.273438 12.972656 C 24.261719 12.910156 24.316406 12.824219 24.386719 12.851562 C 24.535156 12.90625 24.644531 13.027344 24.777344 13.113281 C 24.679688 12.613281 24.464844 12.144531 24.214844 11.703125 C 23.980469 11.277344 23.683594 10.890625 23.46875 10.453125 C 23.402344 10.316406 23.34375 10.175781 23.320312 10.023438 C 23.3125 9.960938 23.296875 9.867188 23.371094 9.835938 C 23.476562 9.800781 23.5625 9.894531 23.652344 9.933594 C 23.726562 9.882812 23.777344 9.8125 23.832031 9.746094 C 23.847656 9.707031 23.867188 9.667969 23.882812 9.632812 C 23.957031 9.40625 23.886719 9.164062 23.769531 8.964844 C 23.691406 8.84375 23.730469 8.691406 23.796875 8.574219 C 23.851562 8.488281 23.933594 8.429688 24.007812 8.359375 C 24.332031 8.046875 24.589844 7.667969 24.761719 7.253906 C 24.964844 6.722656 25.046875 6.148438 25.007812 5.578125 C 24.976562 5.183594 24.890625 4.757812 24.613281 4.453125 C 24.414062 4.203125 24.074219 4.097656 23.761719 4.117188 C 23.347656 4.152344 22.964844 4.335938 22.621094 4.5625 C 22.351562 4.75 22.089844 4.957031 21.839844 5.171875 C 21.835938 5.175781 21.828125 5.183594 21.824219 5.183594 C 21.414062 5.546875 21.007812 5.914062 20.53125 6.183594 C 20.359375 6.285156 20.171875 6.351562 19.996094 6.441406 C 19.992188 6.496094 20.003906 6.566406 19.945312 6.597656 C 19.84375 6.660156 19.722656 6.609375 19.621094 6.574219 C 19.058594 6.347656 18.589844 5.949219 18.039062 5.695312 C 17.570312 5.472656 17.042969 5.371094 16.523438 5.402344 C 16.34375 5.421875 16.164062 5.457031 15.996094 5.511719 C 15.765625 5.601562 15.578125 5.796875 15.523438 6.039062 C 15.453125 6.285156 15.511719 6.539062 15.589844 6.773438 C 15.761719 7.207031 16.109375 7.53125 16.359375 7.914062 C 16.382812 7.953125 16.40625 7.988281 16.429688 8.023438 C 16.652344 8.378906 16.820312 8.773438 16.859375 9.191406 C 16.882812 9.328125 16.894531 9.46875 16.898438 9.605469 C 16.90625 9.695312 16.90625 9.785156 16.902344 9.875 C 16.898438 9.925781 16.898438 9.976562 16.890625 10.03125 C 16.882812 10.101562 16.878906 10.171875 16.867188 10.246094 C 16.832031 10.414062 16.789062 10.582031 16.726562 10.742188 C 16.660156 10.917969 16.554688 11.078125 16.476562 11.253906 C 16.390625 11.449219 16.488281 11.660156 16.609375 11.816406 C 16.660156 11.882812 16.746094 11.910156 16.8125 11.957031 C 16.898438 12.050781 16.886719 12.195312 16.851562 12.308594 C 16.769531 12.546875 16.671875 12.785156 16.660156 13.042969 C 16.667969 13.332031 16.824219 13.582031 16.96875 13.820312 C 17.128906 14.097656 17.054688 14.425781 16.953125 14.707031 C 16.902344 14.882812 16.871094 15.0625 16.855469 15.246094 C 16.847656 15.453125 16.871094 15.660156 16.894531 15.867188 C 17.011719 16.371094 17.285156 16.816406 17.433594 17.308594 C 17.539062 17.664062 17.570312 18.046875 17.476562 18.410156 C 17.457031 18.46875 17.40625 18.550781 17.332031 18.53125 C 17.242188 18.496094 17.21875 18.390625 17.199219 18.304688 C 17.164062 18.148438 17.101562 18 17.066406 17.84375 C 16.914062 17.332031 16.6875 16.84375 16.585938 16.320312 C 16.566406 16.140625 16.507812 15.96875 16.441406 15.804688 C 16.359375 15.59375 16.289062 15.375 16.253906 15.152344 C 16.210938 14.910156 16.292969 14.675781 16.308594 14.433594 C 16.316406 14.1875 16.164062 13.984375 16.082031 13.761719 C 16.03125 13.574219 16.046875 13.378906 16.085938 13.191406 C 16.121094 12.992188 16.207031 12.804688 16.304688 12.628906 C 16.367188 12.484375 16.226562 12.371094 16.15625 12.265625 C 16.074219 12.160156 15.996094 12.050781 15.894531 11.964844 C 15.789062 12.042969 15.683594 12.128906 15.582031 12.21875 C 15.460938 12.316406 15.355469 12.433594 15.257812 12.554688 C 15.183594 12.648438 15.050781 12.703125 14.9375 12.652344 C 14.742188 12.554688 13.898438 11.691406 13.730469 11.519531 C 13.597656 11.382812 13.5625 11.183594 13.460938 11.023438 C 13.175781 10.472656 13.101562 9.828125 13.214844 9.222656 C 13.292969 8.679688 13.53125 8.160156 13.878906 7.734375 C 14.152344 7.371094 14.480469 7.023438 14.570312 6.566406 C 14.660156 6.246094 14.589844 5.855469 14.320312 5.640625 C 14.164062 5.5 13.949219 5.457031 13.75 5.417969 C 13.449219 5.371094 13.148438 5.410156 12.855469 5.4375 C 12.730469 5.46875 12.605469 5.496094 12.484375 5.53125 C 12.089844 5.652344 11.726562 5.851562 11.378906 6.070312 C 11.039062 6.261719 10.71875 6.5 10.339844 6.605469 C 10.261719 6.628906 10.171875 6.640625 10.105469 6.582031 C 10.0625 6.542969 10.082031 6.480469 10.074219 6.429688 C 9.867188 6.34375 9.65625 6.261719 9.464844 6.144531 C 9.230469 6 9.003906 5.847656 8.796875 5.667969 C 8.519531 5.449219 8.269531 5.199219 7.992188 4.984375 C 7.511719 4.585938 6.976562 4.191406 6.335938 4.125 C 5.953125 4.078125 5.542969 4.238281 5.328125 4.566406 C 5.285156 4.636719 5.246094 4.710938 5.210938 4.785156 C 5.027344 5.191406 4.980469 5.652344 5.015625 6.09375 C 5.066406 6.875 5.335938 7.675781 5.902344 8.234375 C 6.035156 8.382812 6.238281 8.484375 6.289062 8.691406 C 6.363281 8.933594 6.136719 9.128906 6.140625 9.367188 C 6.113281 9.589844 6.230469 9.792969 6.394531 9.933594 C 6.472656 9.890625 6.550781 9.820312 6.648438 9.828125 C 6.722656 9.839844 6.75 9.929688 6.742188 9.996094 C 6.707031 10.246094 6.585938 10.476562 6.464844 10.695312 C 6.355469 10.917969 6.203125 11.117188 6.070312 11.324219 C 5.761719 11.800781 5.488281 12.304688 5.324219 12.847656 C 5.296875 12.933594 5.28125 13.019531 5.28125 13.105469 C 5.40625 13.023438 5.519531 12.914062 5.660156 12.855469 C 5.703125 12.835938 5.773438 12.851562 5.785156 12.90625 C 5.8125 13.054688 5.730469 13.1875 5.675781 13.320312 C 5.523438 13.691406 5.40625 14.074219 5.335938 14.46875 C 5.277344 14.886719 5.210938 15.308594 5.253906 15.730469 C 5.261719 15.792969 5.269531 15.855469 5.292969 15.914062 C 5.332031 15.910156 5.34375 15.867188 5.359375 15.839844 C 5.472656 15.628906 5.589844 15.421875 5.730469 15.226562 C 5.773438 15.175781 5.789062 15.105469 5.808594 15.039062 C 5.855469 14.878906 5.9375 14.730469 6.027344 14.585938 C 6.035156 14.523438 6.023438 14.449219 6.074219 14.402344 C 6.101562 14.367188 6.140625 14.398438 6.140625 14.433594 C 6.109375 14.632812 6.089844 14.839844 6.03125 15.035156 C 5.980469 15.171875 6.007812 15.320312 5.988281 15.460938 C 5.980469 15.59375 5.949219 15.726562 5.953125 15.859375 C 5.976562 16.316406 6.011719 16.777344 6.15625 17.210938 C 6.234375 17.445312 6.300781 17.6875 6.429688 17.902344 C 6.519531 18.054688 6.589844 18.222656 6.726562 18.347656 C 6.765625 18.09375 6.792969 17.832031 6.875 17.585938 C 6.902344 17.527344 6.949219 17.457031 7.023438 17.457031 C 7.109375 17.457031 7.148438 17.546875 7.171875 17.617188 C 7.246094 17.898438 7.285156 18.199219 7.417969 18.464844 C 7.421875 18.472656 7.433594 18.492188 7.4375 18.503906 C 7.488281 18.597656 7.546875 18.691406 7.605469 18.785156 C 7.777344 19.035156 7.992188 19.261719 8.25 19.429688 C 8.242188 19.140625 8.136719 18.855469 8.207031 18.570312 C 8.214844 18.519531 8.253906 18.460938 8.3125 18.464844 C 8.394531 18.46875 8.449219 18.546875 8.492188 18.613281 C 8.679688 18.9375 8.8125 19.296875 9.027344 19.609375 C 9.214844 19.882812 9.4375 20.132812 9.703125 20.332031 C 9.746094 20.359375 9.789062 20.386719 9.835938 20.410156 C 9.847656 20.371094 9.863281 20.332031 9.867188 20.289062 C 9.8125 20.15625 9.824219 20.011719 9.824219 19.871094 C 9.824219 19.796875 9.84375 19.726562 9.871094 19.660156 C 9.898438 19.398438 9.9375 19.140625 9.996094 18.886719 C 10.007812 18.851562 10.015625 18.8125 10.027344 18.777344 C 10.035156 18.753906 10.042969 18.726562 10.050781 18.703125 C 10.09375 18.519531 10.171875 18.34375 10.253906 18.175781 C 10.375 17.902344 10.5625 17.664062 10.746094 17.429688 C 10.878906 17.277344 11.011719 17.117188 11.179688 17 C 11.242188 16.957031 11.355469 16.957031 11.382812 17.042969 C 11.425781 17.199219 11.355469 17.355469 11.296875 17.496094 C 11.164062 17.820312 10.933594 18.085938 10.738281 18.375 C 10.582031 18.578125 10.480469 18.820312 10.425781 19.070312 C 10.390625 19.253906 10.394531 19.453125 10.492188 19.617188 C 10.625 19.789062 10.808594 19.914062 10.996094 20.019531 C 11.117188 20.125 11.285156 20.132812 11.433594 20.160156 C 11.519531 20.175781 11.601562 20.140625 11.6875 20.144531 C 11.785156 20.160156 11.875 20.207031 11.953125 20.265625 C 12.042969 20.332031 12.148438 20.394531 12.1875 20.507812 C 12.214844 20.589844 12.136719 20.660156 12.058594 20.664062 C 11.921875 20.667969 11.789062 20.609375 11.675781 20.539062 C 11.566406 20.46875 11.4375 20.4375 11.3125 20.425781 C 11.191406 20.414062 11.066406 20.460938 10.949219 20.425781 C 10.824219 20.394531 10.703125 20.339844 10.585938 20.285156 C 10.550781 20.269531 10.5 20.234375 10.472656 20.285156 C 10.414062 20.511719 10.527344 20.761719 10.730469 20.882812 C 10.910156 21.023438 11.140625 21.066406 11.320312 21.207031 C 11.371094 21.246094 11.441406 21.28125 11.445312 21.355469 C 11.460938 21.425781 11.390625 21.484375 11.324219 21.496094 C 11.136719 21.53125 10.960938 21.417969 10.773438 21.414062 C 10.761719 21.421875 10.738281 21.433594 10.730469 21.4375 C 10.730469 21.523438 10.78125 21.597656 10.824219 21.671875 C 10.976562 21.925781 11.242188 22.125 11.542969 22.171875 C 11.621094 22.097656 11.71875 22.027344 11.832031 22.054688 C 12 22.105469 12.128906 22.265625 12.316406 22.261719 C 12.492188 22.273438 12.675781 22.1875 12.847656 22.25 C 12.902344 22.273438 12.96875 22.347656 12.917969 22.402344 C 12.785156 22.546875 12.582031 22.578125 12.402344 22.625 C 12.277344 22.660156 12.144531 22.632812 12.015625 22.660156 C 12.011719 22.671875 12.003906 22.699219 12.003906 22.710938 C 12.085938 22.804688 12.1875 22.886719 12.308594 22.925781 C 12.433594 22.976562 12.570312 22.96875 12.703125 22.964844 C 13.105469 22.941406 13.496094 22.828125 13.867188 22.671875 C 14.125 22.558594 14.382812 22.4375 14.597656 22.253906 C 14.820312 22.0625 14.863281 21.648438 14.605469 21.46875 C 14.476562 21.371094 14.359375 21.25 14.289062 21.101562 C 14.179688 20.855469 13.9375 20.695312 13.683594 20.628906 C 13.503906 20.585938 13.320312 20.566406 13.148438 20.5 C 13 20.429688 12.863281 20.332031 12.753906 20.210938 C 12.601562 20.050781 12.527344 19.832031 12.488281 19.617188 C 12.464844 19.460938 12.46875 19.289062 12.527344 19.140625 C 12.558594 19.054688 12.6875 19.039062 12.734375 19.121094 C 12.800781 19.25 12.804688 19.40625 12.886719 19.53125 C 12.949219 19.625 13.03125 19.71875 13.144531 19.742188 C 13.289062 19.746094 13.429688 19.703125 13.574219 19.710938 C 13.765625 19.710938 13.945312 19.773438 14.121094 19.835938 C 14.316406 19.910156 14.492188 20.027344 14.6875 20.101562 C 14.777344 20.140625 14.875 20.167969 14.972656 20.179688 C 15.078125 20.183594 15.1875 20.167969 15.285156 20.125 C 15.539062 20.019531 15.765625 19.863281 16.03125 19.785156 C 16.21875 19.734375 16.410156 19.6875 16.605469 19.714844 C 16.734375 19.726562 16.886719 19.785156 16.996094 19.691406 C 17.167969 19.558594 17.199219 19.332031 17.277344 19.144531 C 17.320312 19.03125 17.488281 19.054688 17.515625 19.167969 C 17.621094 19.613281 17.460938 20.128906 17.074219 20.394531 C 16.890625 20.53125 16.65625 20.566406 16.4375 20.605469 C 16.269531 20.628906 16.113281 20.707031 15.972656 20.796875 C 15.871094 20.875 15.792969 20.980469 15.730469 21.09375 C 15.675781 21.199219 15.613281 21.300781 15.523438 21.378906 C 15.433594 21.464844 15.308594 21.527344 15.273438 21.65625 C 15.21875 21.832031 15.238281 22.046875 15.371094 22.1875 C 15.539062 22.375 15.773438 22.480469 15.996094 22.589844 C 16.394531 22.78125 16.824219 22.914062 17.265625 22.960938 C 17.460938 22.980469 17.667969 22.964844 17.851562 22.878906 C 17.929688 22.824219 18.039062 22.761719 18.035156 22.652344 C 17.738281 22.671875 17.441406 22.609375 17.179688 22.46875 C 17.148438 22.445312 17.125 22.414062 17.109375 22.378906 C 17.101562 22.292969 17.191406 22.242188 17.265625 22.230469 C 17.429688 22.210938 17.589844 22.273438 17.753906 22.269531 C 17.953125 22.265625 18.078125 22.078125 18.269531 22.046875 C 18.371094 22.03125 18.449219 22.113281 18.523438 22.167969 C 18.832031 22.109375 19.09375 21.910156 19.25 21.644531 C 19.285156 21.578125 19.34375 21.503906 19.316406 21.421875 C 19.105469 21.414062 18.894531 21.570312 18.679688 21.484375 C 18.59375 21.449219 18.582031 21.339844 18.648438 21.277344 Z M 11.269531 19.007812 C 11.386719 18.96875 11.503906 19.042969 11.585938 19.121094 C 11.65625 19.195312 11.746094 19.277344 11.730469 19.390625 C 11.734375 19.484375 11.628906 19.550781 11.542969 19.53125 C 11.386719 19.488281 11.222656 19.386719 11.175781 19.222656 C 11.144531 19.140625 11.183594 19.039062 11.269531 19.007812 Z M 14.761719 23 C 14.507812 23.085938 14.257812 23.1875 14.003906 23.273438 C 13.679688 23.367188 13.351562 23.460938 13.015625 23.511719 C 12.878906 23.53125 12.746094 23.65625 12.796875 23.804688 C 12.882812 24.03125 13.046875 24.222656 13.25 24.351562 C 13.59375 24.582031 14 24.683594 14.40625 24.742188 C 15.121094 24.824219 15.871094 24.785156 16.539062 24.5 C 16.820312 24.375 17.089844 24.179688 17.222656 23.890625 C 17.269531 23.796875 17.289062 23.660156 17.195312 23.589844 C 17.066406 23.496094 16.898438 23.496094 16.75 23.464844 C 16.34375 23.367188 15.941406 23.257812 15.554688 23.105469 C 15.304688 23.007812 15.027344 22.910156 14.761719 23 Z M 12.515625 18.21875 C 12.492188 18.003906 12.492188 17.785156 12.546875 17.574219 C 12.640625 16.984375 13 16.476562 13.148438 15.898438 C 13.160156 15.832031 13.15625 15.761719 13.1875 15.699219 C 13.195312 15.421875 13.210938 15.136719 13.136719 14.859375 C 13.082031 14.636719 12.984375 14.417969 13.007812 14.179688 C 13 13.949219 13.152344 13.769531 13.257812 13.578125 C 13.390625 13.34375 13.457031 13.066406 13.40625 12.800781 L 13.398438 12.789062 C 13.324219 12.507812 13.230469 12.226562 13.253906 11.929688 C 13.257812 11.820312 13.320312 11.726562 13.378906 11.636719 C 13.421875 11.660156 13.472656 11.679688 13.5 11.722656 C 13.5625 11.800781 13.546875 11.910156 13.589844 12 C 13.652344 12.148438 13.6875 12.3125 13.753906 12.464844 C 13.921875 12.671875 14.0625 12.914062 14.097656 13.183594 C 14.113281 13.402344 14.054688 13.625 13.960938 13.820312 C 13.867188 14.003906 13.757812 14.195312 13.753906 14.40625 C 13.738281 14.609375 13.832031 14.800781 13.8125 15.003906 C 13.789062 15.277344 13.679688 15.53125 13.601562 15.792969 C 13.554688 15.941406 13.496094 16.085938 13.457031 16.238281 C 13.417969 16.417969 13.367188 16.601562 13.300781 16.773438 C 13.160156 17.132812 13.050781 17.507812 12.921875 17.871094 C 12.90625 18 12.847656 18.125 12.820312 18.253906 C 12.796875 18.339844 12.800781 18.449219 12.714844 18.507812 C 12.664062 18.558594 12.589844 18.507812 12.558594 18.453125 C 12.523438 18.382812 12.519531 18.296875 12.515625 18.21875 Z M 7.957031 16.171875 C 8.011719 16.257812 8.070312 16.34375 8.132812 16.425781 C 8.199219 16.492188 8.261719 16.570312 8.351562 16.609375 C 8.453125 16.660156 8.570312 16.660156 8.683594 16.667969 C 8.972656 16.722656 9.246094 16.882812 9.40625 17.132812 C 9.472656 17.238281 9.5 17.359375 9.519531 17.480469 C 9.546875 17.695312 9.460938 17.898438 9.464844 18.109375 C 9.464844 18.238281 9.460938 18.371094 9.488281 18.5 C 9.507812 18.605469 9.53125 18.71875 9.507812 18.824219 C 9.492188 18.875 9.457031 18.933594 9.398438 18.941406 C 9.300781 18.929688 9.242188 18.839844 9.195312 18.761719 C 9.089844 18.5625 8.988281 18.351562 8.957031 18.125 C 8.925781 17.941406 8.898438 17.738281 8.769531 17.59375 C 8.671875 17.488281 8.535156 17.417969 8.390625 17.398438 C 8.320312 17.488281 8.265625 17.628906 8.136719 17.632812 C 7.945312 17.585938 7.835938 17.410156 7.730469 17.257812 C 7.597656 17.074219 7.511719 16.859375 7.433594 16.648438 C 7.421875 16.613281 7.402344 16.578125 7.402344 16.542969 C 7.351562 16.429688 7.316406 16.3125 7.277344 16.191406 C 7.167969 16.273438 7.175781 16.441406 7.070312 16.53125 C 6.996094 16.59375 6.90625 16.5 6.886719 16.425781 C 6.753906 16.09375 6.707031 15.730469 6.703125 15.375 C 6.757812 15.066406 6.738281 14.742188 6.863281 14.449219 C 6.984375 14.179688 7.183594 13.949219 7.421875 13.777344 C 7.546875 13.667969 7.691406 13.578125 7.851562 13.535156 C 7.949219 13.515625 8.019531 13.625 7.976562 13.710938 C 7.886719 13.902344 7.785156 14.089844 7.722656 14.296875 C 7.667969 14.476562 7.644531 14.664062 7.628906 14.851562 C 7.625 14.957031 7.625 15.0625 7.636719 15.167969 C 7.667969 15.308594 7.6875 15.457031 7.730469 15.597656 C 7.765625 15.691406 7.792969 15.789062 7.832031 15.882812 C 7.871094 15.980469 7.910156 16.078125 7.957031 16.171875 Z M 10.765625 16.085938 C 10.773438 16.101562 10.792969 16.132812 10.800781 16.148438 C 10.851562 16.273438 10.832031 16.417969 10.761719 16.53125 C 10.644531 16.722656 10.472656 16.871094 10.324219 17.035156 C 10.269531 17.09375 10.175781 17.164062 10.101562 17.09375 C 10.023438 17.003906 10.058594 16.875 10.042969 16.765625 C 10.035156 16.617188 9.933594 16.503906 9.84375 16.398438 C 9.804688 16.367188 9.769531 16.339844 9.734375 16.308594 C 9.566406 16.199219 9.382812 16.121094 9.1875 16.078125 C 8.878906 15.988281 8.609375 15.746094 8.523438 15.433594 C 8.40625 15.070312 8.496094 14.671875 8.675781 14.34375 C 8.710938 14.261719 8.835938 14.246094 8.878906 14.328125 C 8.957031 14.46875 8.96875 14.632812 9.023438 14.78125 C 9.089844 14.949219 9.179688 15.109375 9.3125 15.230469 C 9.472656 15.375 9.636719 15.503906 9.789062 15.648438 L 9.796875 15.652344 C 9.832031 15.671875 9.871094 15.695312 9.910156 15.722656 C 10.0625 15.808594 10.226562 15.878906 10.402344 15.914062 C 10.535156 15.941406 10.667969 15.984375 10.765625 16.085938 Z M 19.976562 15.804688 C 20.105469 15.714844 20.277344 15.671875 20.378906 15.546875 C 20.496094 15.449219 20.613281 15.355469 20.726562 15.257812 C 20.964844 15.035156 21.09375 14.726562 21.15625 14.414062 C 21.183594 14.34375 21.238281 14.257812 21.328125 14.273438 C 21.429688 14.304688 21.460938 14.417969 21.5 14.503906 C 21.542969 14.6875 21.609375 14.871094 21.613281 15.0625 C 21.609375 15.402344 21.46875 15.769531 21.160156 15.941406 C 20.894531 16.078125 20.589844 16.132812 20.34375 16.304688 C 20.21875 16.394531 20.101562 16.507812 20.042969 16.65625 C 19.988281 16.777344 20.050781 16.921875 20 17.046875 C 19.980469 17.097656 19.921875 17.128906 19.867188 17.121094 C 19.777344 17.085938 19.714844 17.003906 19.648438 16.9375 C 19.519531 16.808594 19.394531 16.671875 19.292969 16.519531 C 19.179688 16.363281 19.21875 16.109375 19.394531 16.011719 C 19.574219 15.90625 19.792969 15.902344 19.976562 15.804688 Z M 11.789062 14.523438 C 11.734375 14.34375 11.621094 14.179688 11.472656 14.0625 C 11.429688 14.175781 11.382812 14.300781 11.269531 14.359375 C 11.070312 14.480469 10.785156 14.382812 10.691406 14.175781 C 10.617188 14.023438 10.636719 13.851562 10.6875 13.699219 C 10.566406 13.65625 10.4375 13.640625 10.3125 13.664062 C 10.261719 13.679688 10.183594 13.664062 10.167969 13.726562 C 10.132812 13.808594 10.132812 13.898438 10.152344 13.984375 C 10.234375 14.859375 11.472656 15.089844 11.789062 14.523438 Z M 18.707031 13.304688 C 19.121094 13.085938 19.609375 13.027344 20.070312 13.089844 C 20.359375 13.113281 20.640625 13.195312 20.929688 13.210938 C 21.085938 13.230469 21.253906 13.191406 21.40625 13.253906 C 21.488281 13.277344 21.570312 13.375 21.523438 13.460938 C 21.449219 13.574219 21.316406 13.625 21.1875 13.652344 C 21.007812 13.714844 20.792969 13.699219 20.636719 13.832031 C 20.535156 13.914062 20.5 14.042969 20.480469 14.167969 C 20.371094 14.503906 20.1875 14.832031 19.894531 15.050781 C 19.605469 15.273438 19.234375 15.378906 18.871094 15.390625 C 18.742188 15.382812 18.613281 15.382812 18.492188 15.421875 C 18.339844 15.492188 18.214844 15.621094 18.164062 15.777344 C 18.046875 16.082031 18.132812 16.40625 18.175781 16.714844 C 18.191406 16.832031 18.078125 16.996094 17.949219 16.921875 C 17.710938 16.699219 17.59375 16.375 17.535156 16.0625 C 17.402344 15.445312 17.542969 14.800781 17.808594 14.234375 C 18 13.84375 18.3125 13.503906 18.707031 13.304688 Z M 19.367188 14.757812 C 19.746094 14.5625 20.015625 14.109375 19.882812 13.6875 C 19.714844 13.660156 19.539062 13.644531 19.375 13.695312 C 19.394531 13.777344 19.425781 13.863281 19.425781 13.949219 C 19.40625 14.09375 19.355469 14.25 19.222656 14.332031 C 19.082031 14.433594 18.871094 14.429688 18.738281 14.308594 C 18.660156 14.242188 18.628906 14.144531 18.59375 14.050781 C 18.457031 14.179688 18.300781 14.328125 18.285156 14.523438 C 18.363281 14.679688 18.53125 14.765625 18.691406 14.816406 C 18.914062 14.878906 19.152344 14.84375 19.367188 14.757812 Z M 10.148438 13.078125 C 10.65625 13.019531 11.183594 13.148438 11.597656 13.445312 C 11.753906 13.5625 11.898438 13.695312 12.019531 13.851562 C 12.183594 14.054688 12.289062 14.292969 12.386719 14.53125 C 12.519531 14.882812 12.585938 15.257812 12.582031 15.628906 C 12.554688 16.03125 12.484375 16.449219 12.238281 16.777344 C 12.179688 16.859375 12.105469 16.949219 12 16.957031 C 11.90625 16.917969 11.867188 16.808594 11.867188 16.714844 C 11.882812 16.425781 12.011719 16.136719 11.921875 15.847656 C 11.867188 15.648438 11.71875 15.464844 11.515625 15.398438 C 11.371094 15.363281 11.21875 15.410156 11.074219 15.382812 C 10.730469 15.339844 10.375 15.238281 10.113281 15.007812 C 9.820312 14.773438 9.648438 14.421875 9.570312 14.0625 C 9.546875 13.945312 9.464844 13.84375 9.363281 13.789062 C 9.246094 13.714844 9.101562 13.71875 8.96875 13.675781 C 8.839844 13.636719 8.691406 13.605469 8.609375 13.488281 C 8.546875 13.402344 8.613281 13.292969 8.703125 13.261719 C 8.839844 13.195312 8.992188 13.230469 9.136719 13.222656 C 9.476562 13.195312 9.808594 13.113281 10.148438 13.078125 Z M 21.734375 12.558594 C 21.558594 12.496094 21.367188 12.484375 21.191406 12.417969 C 21.09375 12.378906 21.027344 12.289062 21.011719 12.191406 C 21.015625 12.101562 21.050781 12.019531 21.0625 11.933594 C 21.105469 11.363281 21.0625 10.78125 20.910156 10.226562 C 20.867188 10.007812 20.789062 9.796875 20.71875 9.585938 C 20.679688 9.527344 20.664062 9.457031 20.636719 9.390625 C 20.523438 9.171875 20.421875 8.949219 20.292969 8.742188 C 20.128906 8.46875 19.9375 8.210938 19.757812 7.949219 C 19.621094 7.75 19.445312 7.589844 19.289062 7.410156 C 19.234375 7.339844 19.171875 7.261719 19.175781 7.167969 C 19.203125 7.089844 19.304688 7.085938 19.371094 7.109375 C 19.707031 7.253906 19.984375 7.488281 20.308594 7.65625 C 20.445312 7.742188 20.597656 7.828125 20.671875 7.980469 C 20.746094 8.128906 20.824219 8.28125 20.902344 8.433594 C 21.023438 8.703125 21.183594 8.960938 21.289062 9.238281 C 21.601562 9.984375 21.835938 10.765625 21.898438 11.574219 C 21.902344 11.671875 21.960938 11.769531 22.058594 11.800781 C 22.265625 11.878906 22.460938 11.992188 22.675781 12.054688 C 22.765625 12.082031 22.828125 11.984375 22.832031 11.90625 C 22.847656 11.777344 22.792969 11.625 22.894531 11.523438 C 23.003906 11.464844 23.101562 11.570312 23.160156 11.648438 C 23.28125 11.832031 23.359375 12.035156 23.429688 12.242188 C 23.597656 12.691406 23.769531 13.15625 23.8125 13.640625 C 23.859375 13.90625 22.125 12.671875 21.734375 12.558594 Z M 6.308594 13.390625 C 6.316406 13.296875 6.347656 13.210938 6.378906 13.125 C 6.402344 12.988281 6.441406 12.851562 6.515625 12.734375 C 6.636719 12.546875 6.753906 12.367188 6.875 12.183594 C 7.179688 11.644531 7.535156 11.136719 7.878906 10.621094 C 8.128906 10.289062 8.359375 9.941406 8.59375 9.59375 C 8.675781 9.484375 8.742188 9.363281 8.8125 9.242188 C 8.832031 9.207031 8.867188 9.148438 8.816406 9.121094 C 8.515625 9.203125 8.238281 9.351562 7.980469 9.523438 C 7.835938 9.625 7.730469 9.777344 7.570312 9.855469 C 7.519531 9.878906 7.445312 9.890625 7.410156 9.839844 C 7.363281 9.792969 7.394531 9.722656 7.410156 9.667969 C 7.5 9.425781 7.582031 9.183594 7.683594 8.949219 C 7.714844 8.898438 7.765625 8.875 7.8125 8.847656 C 7.894531 8.796875 7.96875 8.734375 8.050781 8.6875 C 8.34375 8.535156 8.644531 8.40625 8.933594 8.25 C 9.035156 8.195312 9.128906 8.121094 9.226562 8.058594 C 9.347656 8.003906 9.46875 7.953125 9.585938 7.886719 C 9.789062 7.78125 9.945312 7.613281 10.128906 7.476562 C 10.328125 7.296875 10.554688 7.136719 10.808594 7.035156 C 11 6.964844 11.195312 6.910156 11.378906 6.824219 C 11.449219 6.785156 11.519531 6.738281 11.589844 6.699219 C 11.664062 6.660156 11.738281 6.621094 11.8125 6.578125 C 11.996094 6.496094 12.164062 6.378906 12.347656 6.296875 C 12.726562 6.101562 13.152344 6.007812 13.574219 5.976562 C 13.679688 5.96875 13.785156 5.976562 13.886719 5.996094 C 13.992188 6.011719 14.070312 6.132812 14.027344 6.234375 C 13.96875 6.378906 13.855469 6.488281 13.734375 6.585938 C 13.605469 6.699219 13.453125 6.792969 13.289062 6.839844 C 13.128906 6.890625 12.964844 6.878906 12.800781 6.894531 C 12.515625 6.914062 12.242188 6.992188 11.960938 7.054688 L 11.960938 7.0625 C 11.867188 7.09375 11.773438 7.125 11.6875 7.175781 C 11.578125 7.246094 11.464844 7.324219 11.339844 7.371094 C 11.160156 7.402344 10.953125 7.390625 10.808594 7.527344 C 10.539062 7.6875 10.316406 7.914062 10.121094 8.15625 C 10.054688 8.230469 10 8.3125 9.941406 8.390625 C 9.871094 8.515625 9.785156 8.636719 9.742188 8.773438 C 9.730469 8.816406 9.714844 8.855469 9.703125 8.898438 C 9.652344 9.035156 9.691406 9.195312 9.609375 9.320312 C 9.515625 9.488281 9.390625 9.636719 9.277344 9.789062 C 9.046875 10.097656 8.835938 10.417969 8.617188 10.730469 C 8.367188 11.117188 8.09375 11.496094 7.875 11.902344 C 7.882812 11.921875 7.894531 11.957031 7.902344 11.976562 C 8.101562 11.910156 8.300781 11.847656 8.496094 11.773438 C 8.621094 11.726562 8.757812 11.707031 8.867188 11.632812 C 8.945312 11.574219 8.988281 11.484375 9.058594 11.421875 C 9.160156 11.324219 9.253906 11.21875 9.363281 11.128906 C 9.414062 11.09375 9.472656 11.050781 9.539062 11.066406 C 9.601562 11.089844 9.617188 11.160156 9.621094 11.21875 C 9.621094 11.46875 9.503906 11.707031 9.53125 11.957031 C 9.539062 12.0625 9.59375 12.1875 9.523438 12.285156 C 9.449219 12.390625 9.3125 12.417969 9.195312 12.429688 C 8.601562 12.449219 7.359375 12.953125 6.933594 13.320312 C 6.773438 13.445312 6.640625 13.601562 6.488281 13.734375 C 6.394531 13.804688 6.378906 13.929688 6.316406 14.019531 C 6.292969 14.046875 6.277344 14.113281 6.234375 14.082031 C 6.195312 14 6.171875 13.902344 6.203125 13.8125 C 6.25 13.675781 6.25 13.523438 6.308594 13.390625 Z M 17.457031 13.113281 C 17.441406 13.03125 17.445312 12.941406 17.46875 12.859375 C 17.476562 12.816406 17.484375 12.773438 17.503906 12.734375 C 17.539062 12.597656 17.578125 12.460938 17.625 12.324219 C 17.640625 12.171875 17.675781 12.023438 17.679688 11.871094 C 17.703125 11.332031 17.824219 10.792969 17.777344 10.25 C 17.769531 9.828125 17.699219 9.40625 17.601562 8.996094 C 17.578125 8.820312 17.496094 8.65625 17.460938 8.484375 C 17.425781 8.316406 17.316406 8.171875 17.285156 8.003906 C 17.28125 7.929688 17.316406 7.839844 17.390625 7.816406 C 17.46875 7.78125 17.550781 7.808594 17.625 7.824219 C 18.058594 7.917969 18.492188 8.027344 18.925781 8.117188 C 19.074219 8.15625 19.222656 8.246094 19.285156 8.394531 C 19.363281 8.542969 19.453125 8.691406 19.488281 8.855469 C 19.503906 8.917969 19.453125 8.988281 19.386719 8.988281 C 19.292969 9.011719 19.210938 8.949219 19.125 8.917969 C 18.9375 8.828125 18.730469 8.820312 18.53125 8.78125 C 18.46875 8.777344 18.394531 8.738281 18.34375 8.789062 C 18.292969 8.832031 18.316406 8.902344 18.328125 8.957031 C 18.367188 9.105469 18.402344 9.253906 18.4375 9.402344 C 18.464844 9.515625 18.589844 9.554688 18.6875 9.570312 C 18.863281 9.59375 19.039062 9.632812 19.214844 9.648438 C 19.332031 9.660156 19.425781 9.753906 19.453125 9.867188 C 19.484375 10.003906 19.523438 10.140625 19.523438 10.28125 C 19.527344 10.390625 19.394531 10.449219 19.296875 10.429688 C 19.09375 10.382812 18.882812 10.355469 18.671875 10.347656 C 18.621094 10.34375 18.574219 10.375 18.546875 10.414062 C 18.492188 10.542969 18.539062 10.6875 18.53125 10.820312 C 18.535156 10.957031 18.519531 11.097656 18.542969 11.234375 C 18.59375 11.351562 18.734375 11.320312 18.839844 11.320312 C 18.984375 11.308594 19.125 11.351562 19.273438 11.347656 C 19.410156 11.34375 19.550781 11.390625 19.6875 11.347656 C 19.835938 11.3125 19.925781 11.167969 20.066406 11.125 C 20.175781 11.101562 20.273438 11.199219 20.292969 11.300781 C 20.328125 11.5 20.300781 11.703125 20.304688 11.902344 C 20.316406 12.070312 20.152344 12.226562 19.984375 12.222656 C 19.320312 12.1875 18.335938 12.070312 17.882812 12.683594 C 17.882812 12.695312 17.875 12.707031 17.867188 12.714844 C 17.824219 12.792969 17.789062 12.878906 17.726562 12.945312 C 17.6875 13.019531 17.644531 13.101562 17.578125 13.160156 C 17.535156 13.191406 17.480469 13.152344 17.457031 13.113281 Z M 12.507812 12.421875 L 12.519531 12.4375 C 12.566406 12.648438 12.683594 12.847656 12.652344 13.070312 C 12.65625 13.148438 12.554688 13.214844 12.492188 13.152344 C 11.859375 12.5625 12.191406 12.25 10.828125 12.191406 C 10.679688 12.199219 10.527344 12.21875 10.382812 12.167969 C 10.265625 12.109375 10.203125 11.972656 10.214844 11.847656 C 10.246094 11.351562 10.300781 10.859375 10.378906 10.371094 C 10.425781 9.894531 10.585938 9.441406 10.675781 8.972656 C 10.71875 8.75 10.796875 8.523438 10.972656 8.375 C 11.101562 8.292969 11.253906 8.269531 11.390625 8.214844 C 11.605469 8.121094 11.835938 8.0625 12.058594 7.980469 C 12.234375 7.910156 12.417969 7.851562 12.605469 7.820312 C 12.679688 7.808594 12.78125 7.832031 12.796875 7.917969 C 12.851562 8.046875 12.75 8.164062 12.714844 8.285156 C 12.652344 8.417969 12.636719 8.585938 12.515625 8.683594 C 12.457031 8.742188 12.375 8.773438 12.289062 8.761719 C 12.066406 8.746094 11.851562 8.835938 11.640625 8.902344 C 11.535156 8.9375 11.402344 8.988281 11.375 9.109375 C 11.324219 9.296875 11.28125 9.480469 11.238281 9.667969 C 11.289062 9.757812 11.390625 9.722656 11.46875 9.703125 C 11.621094 9.660156 11.769531 9.632812 11.917969 9.585938 C 11.988281 9.5625 12.085938 9.566406 12.125 9.640625 C 12.1875 9.730469 12.132812 9.835938 12.128906 9.933594 C 12.109375 10.082031 12.097656 10.265625 11.960938 10.355469 C 11.878906 10.417969 11.773438 10.398438 11.675781 10.417969 C 11.527344 10.445312 11.378906 10.480469 11.234375 10.523438 C 11.148438 10.542969 11.101562 10.628906 11.089844 10.707031 C 11.0625 10.886719 11.0625 11.070312 11.050781 11.25 C 11.058594 11.394531 11.238281 11.394531 11.34375 11.40625 C 11.511719 11.398438 11.679688 11.476562 11.84375 11.425781 C 11.984375 11.363281 12.066406 11.214844 12.214844 11.167969 C 12.292969 11.128906 12.378906 11.199219 12.410156 11.269531 C 12.445312 11.390625 12.460938 11.519531 12.457031 11.648438 C 12.464844 11.90625 12.46875 12.167969 12.507812 12.421875 Z M 14.019531 10.300781 C 14.03125 10.34375 14.046875 10.386719 14.058594 10.429688 C 14.128906 10.625 14.203125 10.828125 14.335938 10.992188 C 14.296875 10.753906 14.492188 10.578125 14.554688 10.363281 C 14.625 10.136719 14.710938 9.902344 14.882812 9.730469 C 14.949219 9.667969 15.058594 9.644531 15.136719 9.691406 C 15.269531 9.761719 15.375 9.875 15.480469 9.976562 C 15.652344 10.144531 15.75 10.371094 15.921875 10.535156 C 16.0625 10.316406 16.117188 10.054688 16.148438 9.800781 C 16.15625 9.726562 16.152344 9.652344 16.148438 9.578125 C 16.128906 9.164062 15.980469 8.773438 15.777344 8.417969 C 15.660156 8.242188 15.546875 8.0625 15.414062 7.898438 C 15.300781 7.777344 15.230469 7.617188 15.101562 7.507812 C 15.035156 7.453125 14.964844 7.523438 14.925781 7.574219 C 14.824219 7.710938 14.71875 7.847656 14.613281 7.980469 C 14.394531 8.308594 14.152344 8.632812 14.058594 9.023438 C 13.925781 9.433594 13.90625 9.882812 14.019531 10.300781 Z M 22.066406 9.101562 C 22.183594 9.046875 22.285156 9.152344 22.375 9.214844 C 22.503906 9.296875 22.554688 9.445312 22.613281 9.578125 C 22.648438 9.664062 22.695312 9.757812 22.664062 9.851562 C 22.640625 9.914062 22.558594 9.917969 22.507812 9.894531 C 22.320312 9.808594 22.183594 9.644531 22.09375 9.464844 C 22.027344 9.359375 21.960938 9.203125 22.066406 9.101562 Z M 22.925781 8.046875 C 22.996094 8.199219 23.085938 8.347656 23.09375 8.515625 C 23.101562 8.601562 23.132812 8.695312 23.078125 8.769531 C 23.046875 8.816406 22.984375 8.820312 22.941406 8.789062 C 22.800781 8.695312 22.742188 8.523438 22.613281 8.414062 C 22.40625 8.207031 22.175781 8.015625 21.914062 7.878906 C 21.742188 7.78125 21.566406 7.695312 21.402344 7.589844 C 21.316406 7.523438 21.234375 7.433594 21.230469 7.320312 C 21.246094 7.175781 21.359375 7.078125 21.445312 6.976562 C 21.570312 6.847656 21.675781 6.699219 21.78125 6.554688 C 22.003906 6.253906 22.207031 5.933594 22.484375 5.675781 C 22.742188 5.421875 23.035156 5.199219 23.363281 5.042969 C 23.445312 5.007812 23.558594 4.960938 23.628906 5.039062 C 23.671875 5.113281 23.605469 5.1875 23.5625 5.242188 C 23.507812 5.308594 23.429688 5.363281 23.402344 5.449219 C 23.609375 5.4375 23.828125 5.410156 24.019531 5.507812 C 24.125 5.550781 24.199219 5.648438 24.238281 5.757812 C 24.285156 5.847656 24.238281 5.976562 24.136719 6.011719 C 23.949219 6.09375 23.734375 6.054688 23.535156 6.105469 C 23.289062 6.152344 23.0625 6.277344 22.855469 6.417969 C 22.621094 6.597656 22.402344 6.8125 22.273438 7.082031 C 22.609375 7.089844 22.921875 6.929688 23.246094 6.871094 C 23.316406 6.855469 23.40625 6.878906 23.433594 6.953125 C 23.464844 7.039062 23.429688 7.125 23.386719 7.199219 C 23.292969 7.347656 23.179688 7.488281 23.050781 7.609375 C 22.992188 7.671875 22.921875 7.71875 22.867188 7.789062 C 22.820312 7.878906 22.871094 7.972656 22.925781 8.046875 Z M 15.011719 11.5625 C 15.179688 11.527344 15.308594 11.394531 15.417969 11.273438 C 15.335938 11.042969 15.203125 10.824219 15.027344 10.652344 C 14.972656 10.601562 14.878906 10.535156 14.804688 10.59375 C 14.679688 10.6875 14.53125 10.773438 14.488281 10.933594 C 14.464844 11.019531 14.414062 11.125 14.484375 11.199219 C 14.566406 11.308594 14.675781 11.394531 14.792969 11.464844 C 14.863281 11.5 14.9375 11.535156 15.011719 11.5625 Z M 18.652344 19.007812 C 18.777344 18.957031 18.925781 19.070312 18.902344 19.203125 C 18.867188 19.351562 18.738281 19.472656 18.589844 19.511719 C 18.523438 19.53125 18.445312 19.542969 18.390625 19.496094 C 18.3125 19.425781 18.34375 19.308594 18.390625 19.230469 C 18.457031 19.136719 18.542969 19.042969 18.652344 19.007812 Z M 11.867188 21.195312 C 11.980469 21.175781 12.085938 21.238281 12.183594 21.285156 C 12.285156 21.339844 12.402344 21.402344 12.425781 21.523438 C 12.445312 21.578125 12.394531 21.625 12.351562 21.644531 C 12.15625 21.707031 11.949219 21.59375 11.820312 21.449219 C 11.75 21.375 11.761719 21.230469 11.867188 21.195312 Z M 6.410156 5.140625 C 6.378906 5.0625 6.457031 4.984375 6.535156 5 C 6.695312 5.019531 6.828125 5.117188 6.964844 5.1875 C 7.292969 5.410156 7.601562 5.671875 7.84375 5.988281 C 8.109375 6.296875 8.320312 6.648438 8.589844 6.953125 C 8.675781 7.070312 8.820312 7.160156 8.835938 7.316406 C 8.824219 7.425781 8.75 7.519531 8.660156 7.582031 C 8.421875 7.75 8.144531 7.859375 7.902344 8.027344 C 7.660156 8.195312 7.4375 8.398438 7.257812 8.636719 C 7.199219 8.710938 7.132812 8.820312 7.019531 8.808594 C 6.957031 8.777344 6.9375 8.695312 6.941406 8.628906 C 6.949219 8.386719 7.070312 8.167969 7.183594 7.964844 C 7.21875 7.914062 7.242188 7.832031 7.1875 7.789062 C 6.96875 7.578125 6.710938 7.378906 6.597656 7.085938 C 6.542969 6.988281 6.621094 6.859375 6.738281 6.871094 C 7.097656 6.882812 7.421875 7.101562 7.785156 7.082031 C 7.667969 6.875 7.515625 6.679688 7.324219 6.535156 C 7.140625 6.390625 6.945312 6.253906 6.722656 6.171875 C 6.484375 6.070312 6.214844 6.078125 5.960938 6.039062 C 5.859375 6.019531 5.765625 5.921875 5.777344 5.8125 C 5.792969 5.699219 5.863281 5.585938 5.972656 5.535156 C 6.175781 5.417969 6.414062 5.417969 6.636719 5.449219 C 6.589844 5.328125 6.464844 5.261719 6.410156 5.140625 Z M 16.167969 6.003906 C 16.375 5.953125 16.597656 5.96875 16.8125 6.003906 C 17.003906 6.046875 17.199219 6.074219 17.378906 6.148438 C 17.597656 6.238281 17.816406 6.332031 18.003906 6.472656 C 18.1875 6.613281 18.335938 6.792969 18.476562 6.972656 C 18.519531 7.03125 18.570312 7.121094 18.5 7.179688 C 18.429688 7.257812 18.328125 7.199219 18.25 7.171875 C 18.011719 7.0625 17.765625 6.96875 17.511719 6.914062 C 17.277344 6.878906 17.039062 6.886719 16.808594 6.820312 C 16.515625 6.746094 16.253906 6.550781 16.09375 6.292969 C 16.023438 6.199219 16.054688 6.050781 16.167969 6.003906 Z M 22.171875 13.566406 C 22.226562 13.507812 22.3125 13.542969 22.371094 13.574219 C 22.734375 13.753906 23.027344 14.070312 23.1875 14.441406 C 23.316406 14.703125 23.3125 15.003906 23.3125 15.289062 C 23.292969 15.453125 23.300781 15.617188 23.261719 15.777344 C 23.199219 16.089844 23.105469 16.398438 22.957031 16.683594 C 22.917969 16.753906 22.851562 16.875 22.753906 16.804688 C 22.6875 16.691406 22.710938 16.539062 22.621094 16.433594 C 22.523438 16.582031 22.460938 16.746094 22.367188 16.894531 C 22.234375 17.117188 22.085938 17.328125 21.914062 17.523438 C 21.742188 17.714844 21.507812 17.839844 21.335938 18.03125 C 21.246094 18.125 21.164062 18.222656 21.089844 18.324219 C 20.996094 18.511719 20.945312 18.730469 20.796875 18.890625 C 20.761719 18.933594 20.683594 18.953125 20.640625 18.910156 C 20.585938 18.855469 20.597656 18.773438 20.597656 18.707031 C 20.59375 18.535156 20.644531 18.367188 20.628906 18.195312 C 20.632812 18.039062 20.601562 17.886719 20.574219 17.734375 C 20.554688 17.472656 20.589844 17.171875 20.796875 16.984375 C 20.96875 16.769531 21.242188 16.6875 21.503906 16.65625 C 21.703125 16.644531 21.859375 16.5 21.964844 16.34375 C 22.222656 15.992188 22.371094 15.570312 22.445312 15.148438 C 22.476562 14.996094 22.457031 14.84375 22.441406 14.691406 C 22.421875 14.378906 22.328125 14.070312 22.179688 13.792969 C 22.144531 13.726562 22.105469 13.628906 22.171875 13.566406 Z M 11.925781 15.679688 C 11.980469 15.65625 12.039062 15.632812 12.09375 15.609375 C 12.121094 15.714844 12.074219 15.824219 11.988281 15.886719 C 11.960938 15.820312 11.941406 15.75 11.925781 15.679688 Z M 17.109375 21.316406 C 17.207031 21.273438 17.386719 21.300781 17.367188 21.441406 C 17.316406 21.644531 17.066406 21.753906 16.871094 21.710938 C 16.761719 21.679688 16.773438 21.535156 16.84375 21.472656 C 16.917969 21.402344 17.011719 21.355469 17.109375 21.316406 Z M 17.109375 21.316406 " fill-opacity="1" fill-rule="evenodd"/></g></svg>